#!OML:ASF I:\Actors\actors\Patient Classification 2\Patient 1\Session 1\actor1.ASF
:FULLY-SPECIFIED
:DEGREES
482
root 0.365837 18.6464 4.69076 21.1374 17.1508 -3.51096
lowerback 30.3152 1.28901 -1.45838
upperback 3.46816 1.36496 1.0153
thorax -12.0841 0.7229 1.35879
lowerneck -0.57493 0.207561 -2.34211
upperneck -4.56144 0.455348 4.81171
head -1.3454 0.200894 1.90903
rclavicle 3.66758e-014 -7.05686e-015
rhumerus 13.1359 15.2431 -64.0005
rradius 144.639
rwrist -4.47277
rhand 9.33528 -57.4584
rfingers 7.12502
rthumb 34.4956 -84.1308
lclavicle 3.66758e-014 -7.05686e-015
lhumerus 9.21259 -26.1603 63.0546
lradius 135.635
lwrist 9.081
lhand -2.54173 -11.995
lfingers 7.12502
lthumb 23.1537 16.6336
rfemur -18.5874 -9.87542 17.2931
rtibia 6.94006
rfoot -19.4028 -15.7911
rtoes -8.81508
lfemur -43.7396 -6.05367 -10.9194
ltibia 36.9092
lfoot -14.0779 2.3959
ltoes -55.3928
483
root 0.359892 18.6459 4.65133 21.2755 16.637 -3.24264
lowerback 30.7181 1.48949 -1.99499
upperback 3.75704 1.42999 0.948021
thorax -11.9419 0.771095 1.54858
lowerneck 0.0807492 0.28845 -2.0876
upperneck -4.34542 0.542644 4.61742
head -1.3907 0.236483 1.80016
rclavicle 4.13472e-014 6.36111e-015
rhumerus 12.9613 15.9378 -63.298
rradius 144.289
rwrist -6.52761
rhand 6.85812 -58.3624
rfingers 7.12502
rthumb 32.1406 -85.54
lclavicle 4.13472e-014 6.36111e-015
lhumerus 9.37296 -26.36 61.9005
lradius 137.122
lwrist 9.33982
lhand -4.43336 -13.7024
lfingers 7.12502
lthumb 21.3378 15.1429
rfemur -19.0664 -9.46724 16.8445
rtibia 7.34749
rfoot -19.4652 -15.7852
rtoes -8.70622
lfemur -43.8352 -6.06239 -11.2186
ltibia 36.9077
lfoot -14.2048 2.68005
ltoes -55.3921
484
root 0.356781 18.6425 4.62175 21.4935 16.5512 -3.36849
lowerback 30.8212 1.50239 -1.91934
upperback 3.99373 1.48 1.02067
thorax -11.7224 0.788437 1.56624
lowerneck 0.822796 0.295264 -2.00661
upperneck -4.40121 0.54176 4.49499
head -1.53657 0.227055 1.74926
rclavicle 4.96962e-016 1.71949e-014
rhumerus 12.8303 16.1194 -62.431
rradius 144.28
rwrist -9.28868
rhand 12.4678 -57.1418
rfingers 7.12502
rthumb 37.463 -83.0851
lclavicle 4.96962e-016 1.71949e-014
lhumerus 9.53983 -26.4535 60.812
lradius 138.472
lwrist 9.70397
lhand -6.02358 -15.0399
lfingers 7.12502
lthumb 19.8097 13.9706
rfemur -19.4977 -9.31995 16.9662
rtibia 7.41101
rfoot -19.4698 -15.8657
rtoes -8.9027
lfemur -44.231 -6.10542 -11.0043
ltibia 36.986
lfoot -14.4009 2.54617
ltoes -55.3435
485
root 0.352526 18.6375 4.5988 21.6626 16.4896 -3.76452
lowerback 30.8202 1.4767 -1.70897
upperback 4.2257 1.54814 1.26296
thorax -11.4688 0.811038 1.68704
lowerneck 1.3449 0.331315 -2.33581
upperneck -4.42231 0.573159 4.45278
head -1.63872 0.242386 1.79588
rclavicle -1.59028e-014 2.71341e-014
rhumerus 11.963 17.8651 -61.9649
rradius 145.191
rwrist -10.7758
rhand 17.581 -56.3171
rfingers 7.12502
rthumb 42.2753 -80.8142
lclavicle -1.59028e-014 2.71341e-014
lhumerus 9.51281 -26.3065 59.9523
lradius 139.625
lwrist 9.81823
lhand -7.24049 -16.1879
lfingers 7.12502
lthumb 18.6395 12.939
rfemur -20.0286 -9.08611 17.3809
rtibia 7.6508
rfoot -19.5584 -15.8772
rtoes -9.22076
lfemur -44.6245 -5.88568 -10.5597
ltibia 37.0607
lfoot -14.5448 2.41824
ltoes -55.4361
486
root 0.346009 18.6307 4.57003 21.7841 16.3946 -4.00928
lowerback 30.9322 1.49217 -1.54318
upperback 4.41202 1.63793 1.40353
thorax -11.3128 0.844781 1.71316
lowerneck 1.5691 0.363676 -2.7615
upperneck -4.13254 0.602121 4.74234
head -1.59296 0.257339 1.96458
rclavicle 1.05356e-014 -1.11319e-014
rhumerus 11.3037 19.0197 -61.501
rradius 146.09
rwrist -12.5674
rhand 22.8195 -55.3392
rfingers 7.12502
rthumb 47.152 -77.9382
lclavicle 1.05356e-014 -1.11319e-014
lhumerus 9.58655 -26.38 59.0358
lradius 140.478
lwrist 9.78465
lhand -8.33444 -17.656
lfingers 7.12502
lthumb 17.587 11.5685
rfemur -20.4257 -8.87894 17.6016
rtibia 7.76926
rfoot -19.6109 -15.8811
rtoes -9.0115
lfemur -44.9602 -5.71976 -10.2866
ltibia 37.1562
lfoot -14.594 2.54753
ltoes -55.5756
487
root 0.341082 18.625 4.53758 21.8545 16.228 -4.03528
lowerback 31.1857 1.50447 -1.50727
upperback 4.53605 1.6666 1.44333
thorax -11.2823 0.855258 1.72229
lowerneck 1.48588 0.453062 -3.5391
upperneck -3.55461 0.708392 5.477
head -1.4124 0.313728 2.34115
rclavicle 1.32192e-014 1.67973e-014
rhumerus 10.8428 19.613 -61.3947
rradius 146.672
rwrist -13.9631
rhand 23.6497 -55.0864
rfingers 7.12502
rthumb 47.9186 -77.3371
lclavicle 1.32192e-014 1.67973e-014
lhumerus 9.6139 -26.6634 58.1394
lradius 141.102
lwrist 9.82001
lhand -9.53427 -19.5771
lfingers 7.12502
lthumb 16.4321 9.74689
rfemur -20.8051 -8.69168 17.5437
rtibia 8.06185
rfoot -19.665 -15.8306
rtoes -8.72757
lfemur -45.1653 -5.66329 -10.2511
ltibia 37.2266
lfoot -14.5978 2.69583
ltoes -55.5198
488
root 0.336627 18.6213 4.50834 21.9095 15.9609 -4.09858
lowerback 31.2612 1.55619 -1.46524
upperback 4.70476 1.74793 1.47856
thorax -11.1287 0.888684 1.70656
lowerneck 1.37175 0.469872 -4.22061
upperneck -3.24001 0.722719 6.03884
head -1.30437 0.32458 2.65203
rclavicle -4.59193e-014 2.08724e-015
rhumerus 10.5516 19.5959 -61.6512
rradius 146.79
rwrist -14.2252
rhand 22.1872 -55.7637
rfingers 7.12502
rthumb 46.5669 -78.6184
lclavicle -4.59193e-014 2.08724e-015
lhumerus 9.70287 -27.0731 57.4113
lradius 141.548
lwrist 10.1082
lhand -10.2363 -21.2896
lfingers 7.12502
lthumb 15.7561 8.08904
rfemur -21.2758 -8.40994 17.4957
rtibia 8.53207
rfoot -19.6888 -15.8028
rtoes -9.02302
lfemur -45.2965 -5.42412 -10.2448
ltibia 37.2576
lfoot -14.5824 2.71692
ltoes -55.4488
489
root 0.332866 18.6165 4.47285 21.9283 15.8784 -3.98197
lowerback 31.4304 1.49521 -1.33198
upperback 4.88131 1.71102 1.46797
thorax -10.9962 0.865361 1.63577
lowerneck 1.32413 0.399134 -4.56305
upperneck -3.21114 0.625315 6.22798
head -1.28597 0.278188 2.78106
rclavicle 8.24956e-015 -4.27884e-014
rhumerus 10.4313 19.1585 -62.0787
rradius 146.502
rwrist -13.7477
rhand 21.3671 -57.0041
rfingers 7.12502
rthumb 45.8064 -80.1788
lclavicle 8.24956e-015 -4.27884e-014
lhumerus 9.73681 -27.5623 56.9198
lradius 141.849
lwrist 10.5489
lhand -10.0546 -22.1229
lfingers 7.12502
lthumb 15.9311 7.24188
rfemur -21.6834 -8.36239 17.3036
rtibia 9.08282
rfoot -19.781 -15.7832
rtoes -9.41511
lfemur -45.4053 -5.55939 -10.3268
ltibia 37.2505
lfoot -14.5278 2.85087
ltoes -55.2863
490
root 0.327417 18.6149 4.44467 21.8876 15.6018 -3.94155
lowerback 31.5238 1.52664 -1.25617
upperback 5.0638 1.76817 1.42993
thorax -10.8296 0.88637 1.53292
lowerneck 1.31061 0.29199 -4.64774
upperneck -3.29846 0.481797 6.19157
head -1.30336 0.207699 2.78742
rclavicle 4.6615e-014 -4.47762e-014
rhumerus 10.479 18.675 -62.5284
rradius 146.055
rwrist -13.4013
rhand 19.3429 -55.0646
rfingers 7.12502
rthumb 43.9225 -78.9763
lclavicle 4.6615e-014 -4.47762e-014
lhumerus 9.59569 -28.1481 56.6676
lradius 141.991
lwrist 10.6662
lhand -9.57225 -22.457
lfingers 7.12502
lthumb 16.3955 6.87007
rfemur -22.0324 -8.09262 17.1374
rtibia 9.6137
rfoot -19.9422 -15.7293
rtoes -9.54384
lfemur -45.3759 -5.40476 -10.423
ltibia 37.2299
lfoot -14.4648 2.85671
ltoes -55.045
491
root 0.319628 18.6126 4.41558 21.8018 15.3656 -3.82719
lowerback 31.7804 1.55413 -1.15438
upperback 5.16999 1.82185 1.34379
thorax -10.8121 0.905464 1.36301
lowerneck 1.3865 0.159506 -4.61063
upperneck -3.47594 0.305636 6.09335
head -1.36222 0.118565 2.7518
rclavicle -2.65874e-014 -6.16232e-015
rhumerus 10.5508 18.1752 -62.9087
rradius 145.648
rwrist -13.2696
rhand 17.198 -54.0056
rfingers 7.12502
rthumb 41.9165 -78.6236
lclavicle -2.65874e-014 -6.16232e-015
lhumerus 9.26537 -28.8582 56.7371
lradius 142.022
lwrist 10.3182
lhand -9.31892 -22.9293
lfingers 7.12502
lthumb 16.6394 6.37742
rfemur -22.2974 -7.88247 16.9126
rtibia 10.1384
rfoot -20.1404 -15.6183
rtoes -9.3784
lfemur -45.2827 -5.36732 -10.5629
ltibia 37.1904
lfoot -14.414 2.9398
ltoes -54.998
492
root 0.308049 18.6105 4.38821 21.7426 15.073 -3.6774
lowerback 32.0069 1.64739 -1.11002
upperback 5.23355 1.93666 1.2346
thorax -10.8314 0.954317 1.17647
lowerneck 1.55116 0.0274885 -4.58127
upperneck -3.6318 0.127955 6.0568
head -1.43066 0.0266623 2.73926
rclavicle 1.97045e-014 -1.0958e-014
rhumerus 10.44 18.1385 -63.1128
rradius 145.458
rwrist -12.2211
rhand 15.0888 -53.6802
rfingers 7.12502
rthumb 39.9352 -78.9258
lclavicle 1.97045e-014 -1.0958e-014
lhumerus 8.8995 -29.5102 57.1674
lradius 142.015
lwrist 9.93212
lhand -9.49481 -23.5203
lfingers 7.12502
lthumb 16.4701 5.80061
rfemur -22.5485 -7.67559 16.6823
rtibia 10.5827
rfoot -20.2456 -15.5165
rtoes -9.43962
lfemur -45.183 -5.26306 -10.7492
ltibia 37.1306
lfoot -14.3575 3.00979
ltoes -55.0058
493
root 0.293853 18.6097 4.36329 21.7762 14.7946 -3.4589
lowerback 32.0836 1.77248 -1.16488
upperback 5.30647 2.06262 1.14529
thorax -10.7825 1.01188 1.06282
lowerneck 1.59627 -0.0942361 -4.60984
upperneck -3.64946 -0.0362258 6.09044
head -1.43508 -0.056456 2.75909
rclavicle -1.62848e-014 -1.6524e-015
rhumerus 10.1767 18.5226 -63.1926
rradius 145.531
rwrist -12.0787
rhand 11.762 -54.12
rfingers 7.12502
rthumb 36.7955 -80.2371
lclavicle -1.62848e-014 -1.6524e-015
lhumerus 8.68248 -29.7959 57.8597
lradius 141.971
lwrist 9.62703
lhand -9.86555 -24.0036
lfingers 7.12502
lthumb 16.1131 5.34651
rfemur -22.845 -7.452 16.3935
rtibia 10.9536
rfoot -20.3132 -15.5432
rtoes -9.92336
lfemur -45.1573 -5.15789 -10.9901
ltibia 37.0466
lfoot -14.2489 3.05567
ltoes -55.0262
494
root 0.277202 18.61 4.34103 21.8247 14.6003 -3.20628
lowerback 32.1276 1.88065 -1.26513
upperback 5.39315 2.15674 1.08443
thorax -10.7065 1.05684 1.01666
lowerneck 1.48932 -0.196455 -4.66044
upperneck -3.57363 -0.172221 6.14743
head -1.38413 -0.122874 2.78824
rclavicle 1.70955e-014 -3.3371e-014
rhumerus 9.64506 19.4395 -63.2088
rradius 145.862
rwrist -12.6618
rhand 8.04663 -55.0266
rfingers 7.12502
rthumb 33.2714 -81.9691
lclavicle 1.70955e-014 -3.3371e-014
lhumerus 8.60339 -29.7306 58.6435
lradius 141.949
lwrist 9.23404
lhand -10.1024 -24.4057
lfingers 7.12502
lthumb 15.8851 4.9628
rfemur -23.0978 -7.35084 16.1207
rtibia 11.2509
rfoot -20.3278 -15.6026
rtoes -10.6937
lfemur -45.1414 -5.06308 -11.2601
ltibia 36.9342
lfoot -14.0874 3.01098
ltoes -55.0601
495
root 0.25807 18.6119 4.32446 21.8382 14.3572 -3.05342
lowerback 32.0728 2.01013 -1.40298
upperback 5.50227 2.26894 1.04609
thorax -10.5684 1.11117 1.01044
lowerneck 1.44664 -0.245239 -4.64617
upperneck -3.53987 -0.237134 6.14888
head -1.36174 -0.154824 2.78625
rclavicle -2.30093e-014 -1.27719e-014
rhumerus 8.79923 20.4795 -63.2961
rradius 146.282
rwrist -13.2706
rhand 6.65497 -56.1638
rfingers 7.12502
rthumb 31.9472 -83.3803
lclavicle -2.30093e-014 -1.27719e-014
lhumerus 8.57732 -29.5132 59.33
lradius 142.012
lwrist 8.90249
lhand -10.2989 -24.7823
lfingers 7.12502
lthumb 15.6958 4.60108
rfemur -23.2991 -7.2576 15.9784
rtibia 11.4695
rfoot -20.3224 -15.5455
rtoes -11.0423
lfemur -45.0707 -4.83785 -11.4437
ltibia 36.8047
lfoot -13.9497 2.90491
ltoes -54.9928
496
root 0.23927 18.6129 4.30446 21.7761 14.2918 -2.87247
lowerback 32.289 1.9907 -1.43398
upperback 5.50192 2.22199 0.971657
thorax -10.6521 1.08994 0.960797
lowerneck 1.44384 -0.239459 -4.58686
upperneck -3.43143 -0.230882 6.17655
head -1.32667 -0.152419 2.7832
rclavicle -1.45113e-014 1.6847e-014
rhumerus 7.73467 21.29 -63.6298
rradius 146.675
rwrist -13.7773
rhand 7.18521 -56.992
rfingers 7.12502
rthumb 32.452 -84.1063
lclavicle -1.45113e-014 1.6847e-014
lhumerus 8.42665 -29.3347 59.7923
lradius 142.191
lwrist 8.77881
lhand -10.3544 -25.1235
lfingers 7.12502
lthumb 15.6423 4.26415
rfemur -23.3806 -7.21308 15.7977
rtibia 11.6792
rfoot -20.4703 -15.4932
rtoes -10.7338
lfemur -44.961 -4.95116 -11.5306
ltibia 36.6735
lfoot -13.879 2.91866
ltoes -54.8212
